<svg version="1.1" xmlns="http://www.w3.org/2000/svg" xmlns:xlink="http://www.w3.org/1999/xlink" width="1316" height="956"><defs/><g><g transform="translate(-126,-14) scale(1,1)"><rect fill="#C0C0C0" stroke="none" x="287" y="31" width="1152" height="936" opacity="0.2"/></g><g transform="translate(-126,-14) scale(1,1)"><rect fill="#ffffff" stroke="none" x="280" y="24" width="1152" height="936"/></g><g transform="translate(-126,-14) scale(1,1)"><path fill="none" stroke="#000000" d="M 280 24 L 1432 24 L 1432 960 L 280 960 L 280 24 Z Z" stroke-miterlimit="10"/></g><g transform="translate(-126,-14) scale(1,1)"><g><path fill="none" stroke="none"/><text fill="#000000" stroke="none" font-family="Arial" font-size="13px" font-style="normal" font-weight="bold" text-decoration="none" x="730.5" y="43.5">Diagramme de cas d'utilisation d'UltraNotes</text></g></g><g transform="translate(-126,-14) scale(1,1)"><path fill="#ffffff" stroke="none" d="M 187.82072727272728 537.6800000000001 C 187.82072727272728 532.8861679360001 191.70656959767274 529 196.5 529 C 201.29343040232726 529 205.17927272727272 532.8861679360001 205.17927272727272 537.6800000000001 C 205.17927272727272 542.473832064 201.29343040232726 546.36 196.5 546.36 C 191.70656959767274 546.36 187.82072727272728 542.473832064 187.82072727272728 537.6800000000001 Z"/></g><g transform="translate(-126,-14) scale(1,1)"><path fill="none" stroke="#000000" d="M 187.82072727272728 537.6800000000001 C 187.82072727272728 532.8861679360001 191.70656959767274 529 196.5 529 C 201.29343040232726 529 205.17927272727272 532.8861679360001 205.17927272727272 537.6800000000001 C 205.17927272727272 542.473832064 201.29343040232726 546.36 196.5 546.36 C 191.70656959767274 546.36 187.82072727272728 542.473832064 187.82072727272728 537.6800000000001 Z" stroke-miterlimit="10"/></g><g transform="translate(-126,-14) scale(1,1)"><path fill="none" stroke="#000000" d="M 196.5 546.36 L 196.5 563.64" stroke-miterlimit="10"/></g><g transform="translate(-126,-14) scale(1,1)"><path fill="none" stroke="#000000" d="M 187.31018181818183 552.84 L 205.68981818181817 552.84" stroke-miterlimit="10"/></g><g transform="translate(-126,-14) scale(1,1)"><path fill="none" stroke="#000000" d="M 196.5 563.64 L 183.73636363636365 581" stroke-miterlimit="10"/></g><g transform="translate(-126,-14) scale(1,1)"><path fill="none" stroke="#000000" d="M 196.5 563.64 L 209.26363636363635 581" stroke-miterlimit="10"/></g><g transform="translate(-126,-14) scale(1,1)"><g><path fill="none" stroke="none"/><text fill="#000000" stroke="none" font-family="Arial" font-size="13px" font-style="normal" font-weight="bold" text-decoration="none" x="167.5" y="601.5">Utilisateur</text></g></g><g transform="translate(-126,-14) scale(1,1)"><path fill="#C0C0C0" stroke="none" d="M 455 762.5 C 455 738.4756112 494.17508 719 542.5 719 C 590.82492 719 630 738.4756112 630 762.5 C 630 786.5243888 590.82492 806 542.5 806 C 494.17508 806 455 786.5243888 455 762.5 Z" opacity="0.2"/></g><g transform="translate(-126,-14) scale(1,1)"><path fill="#ffffff" stroke="none" d="M 448 755.5 C 448 731.4756112 487.17508 712 535.5 712 C 583.82492 712 623 731.4756112 623 755.5 C 623 779.5243888 583.82492 799 535.5 799 C 487.17508 799 448 779.5243888 448 755.5 Z"/></g><g transform="translate(-126,-14) scale(1,1)"><path fill="none" stroke="#000000" d="M 448 755.5 C 448 731.4756112 487.17508 712 535.5 712 C 583.82492 712 623 731.4756112 623 755.5 C 623 779.5243888 583.82492 799 535.5 799 C 487.17508 799 448 779.5243888 448 755.5 Z" stroke-miterlimit="10"/></g><g transform="translate(-126,-14) scale(1,1)"><g><path fill="none" stroke="none"/><text fill="#000000" stroke="none" font-family="Arial" font-size="13px" font-style="normal" font-weight="bold" text-decoration="none" x="495" y="762.5">Editer un note</text></g></g><g transform="translate(-126,-14) scale(1,1)"><path fill="#C0C0C0" stroke="none" d="M 455 426.5 C 455 406.8938896 499.3238048 391 554 391 C 608.6761952 391 653 406.8938896 653 426.5 C 653 446.1061104 608.6761952 462 554 462 C 499.3238048 462 455 446.1061104 455 426.5 Z" opacity="0.2"/></g><g transform="translate(-126,-14) scale(1,1)"><path fill="#ffffff" stroke="none" d="M 448 419.5 C 448 399.8938896 492.3238048 384 547 384 C 601.6761952 384 646 399.8938896 646 419.5 C 646 439.1061104 601.6761952 455 547 455 C 492.3238048 455 448 439.1061104 448 419.5 Z"/></g><g transform="translate(-126,-14) scale(1,1)"><path fill="none" stroke="#000000" d="M 448 419.5 C 448 399.8938896 492.3238048 384 547 384 C 601.6761952 384 646 399.8938896 646 419.5 C 646 439.1061104 601.6761952 455 547 455 C 492.3238048 455 448 439.1061104 448 419.5 Z" stroke-miterlimit="10"/></g><g transform="translate(-126,-14) scale(1,1)"><g><path fill="none" stroke="none"/><text fill="#000000" stroke="none" font-family="Arial" font-size="13px" font-style="normal" font-weight="bold" text-decoration="none" x="489.5" y="426.5">Supprimer un fichier</text></g></g><g transform="translate(-126,-14) scale(1,1)"><path fill="#C0C0C0" stroke="none" d="M 471 583 C 471 565.3268864 506.81721600000003 551 551 551 C 595.182784 551 631 565.3268864 631 583 C 631 600.6731136 595.182784 615 551 615 C 506.81721600000003 615 471 600.6731136 471 583 Z" opacity="0.2"/></g><g transform="translate(-126,-14) scale(1,1)"><path fill="#ffffff" stroke="none" d="M 464 576 C 464 558.3268864 499.81721600000003 544 544 544 C 588.182784 544 624 558.3268864 624 576 C 624 593.6731136 588.182784 608 544 608 C 499.81721600000003 608 464 593.6731136 464 576 Z"/></g><g transform="translate(-126,-14) scale(1,1)"><path fill="none" stroke="#000000" d="M 464 576 C 464 558.3268864 499.81721600000003 544 544 544 C 588.182784 544 624 558.3268864 624 576 C 624 593.6731136 588.182784 608 544 608 C 499.81721600000003 608 464 593.6731136 464 576 Z" stroke-miterlimit="10"/></g><g transform="translate(-126,-14) scale(1,1)"><g><path fill="none" stroke="none"/><text fill="#000000" stroke="none" font-family="Arial" font-size="13px" font-style="normal" font-weight="bold" text-decoration="none" x="500.5" y="583">Créer un fichier</text></g></g><g transform="translate(-126,-14) scale(1,1)"><path fill="#C0C0C0" stroke="none" d="M 495 138.5 C 495 114.4756112 548.2781088 95 614 95 C 679.7218912 95 733 114.4756112 733 138.5 C 733 162.5243888 679.7218912 182 614 182 C 548.2781088 182 495 162.5243888 495 138.5 Z" opacity="0.2"/></g><g transform="translate(-126,-14) scale(1,1)"><path fill="#ffffff" stroke="none" d="M 488 131.5 C 488 107.4756112 541.2781088 88 607 88 C 672.7218912 88 726 107.4756112 726 131.5 C 726 155.5243888 672.7218912 175 607 175 C 541.2781088 175 488 155.5243888 488 131.5 Z"/></g><g transform="translate(-126,-14) scale(1,1)"><path fill="none" stroke="#000000" d="M 488 131.5 C 488 107.4756112 541.2781088 88 607 88 C 672.7218912 88 726 107.4756112 726 131.5 C 726 155.5243888 672.7218912 175 607 175 C 541.2781088 175 488 155.5243888 488 131.5 Z" stroke-miterlimit="10"/></g><g transform="translate(-126,-14) scale(1,1)"><g><path fill="none" stroke="none"/><text fill="#000000" stroke="none" font-family="Arial" font-size="13px" font-style="normal" font-weight="bold" text-decoration="none" x="534" y="138.5">Afficher la liste des notes</text></g></g><g transform="translate(-126,-14) scale(1,1)"><path fill="#C0C0C0" stroke="none" d="M 527 282.5 C 527 271.7304464 564.3842192 263 610.5 263 C 656.6157808 263 694 271.7304464 694 282.5 C 694 293.2695536 656.6157808 302 610.5 302 C 564.3842192 302 527 293.2695536 527 282.5 Z" opacity="0.2"/></g><g transform="translate(-126,-14) scale(1,1)"><path fill="#ffffff" stroke="none" d="M 520 275.5 C 520 264.7304464 557.3842192 256 603.5 256 C 649.6157808 256 687 264.7304464 687 275.5 C 687 286.2695536 649.6157808 295 603.5 295 C 557.3842192 295 520 286.2695536 520 275.5 Z"/></g><g transform="translate(-126,-14) scale(1,1)"><path fill="none" stroke="#000000" d="M 520 275.5 C 520 264.7304464 557.3842192 256 603.5 256 C 649.6157808 256 687 264.7304464 687 275.5 C 687 286.2695536 649.6157808 295 603.5 295 C 557.3842192 295 520 286.2695536 520 275.5 Z" stroke-miterlimit="10"/></g><g transform="translate(-126,-14) scale(1,1)"><g><path fill="none" stroke="none"/><text fill="#000000" stroke="none" font-family="Arial" font-size="13px" font-style="normal" font-weight="bold" text-decoration="none" x="555" y="282.5">Afficher une note</text></g></g><g transform="translate(-126,-14) scale(1,1)"><path fill="none" stroke="#000000" d="M 519 263 L 249 223" stroke-miterlimit="10"/></g><g transform="translate(-126,-14) scale(1,1)"><path fill="none" stroke="#000000" d="M 487 155 L 249 203" stroke-miterlimit="10"/></g><g transform="translate(-126,-14) scale(1,1)"><path fill="none" stroke="#000000" d="M 234 588 L 456 711" stroke-miterlimit="10"/></g><g transform="translate(-126,-14) scale(1,1)"><path fill="#C0C0C0" stroke="none" d="M 879 859 C 879 843.5360256 923.77152 831 979 831 C 1034.22848 831 1079 843.5360256 1079 859 C 1079 874.4639744 1034.22848 887 979 887 C 923.77152 887 879 874.4639744 879 859 Z" opacity="0.2"/></g><g transform="translate(-126,-14) scale(1,1)"><path fill="#ffffff" stroke="none" d="M 872 852 C 872 836.5360256 916.77152 824 972 824 C 1027.22848 824 1072 836.5360256 1072 852 C 1072 867.4639744 1027.22848 880 972 880 C 916.77152 880 872 867.4639744 872 852 Z"/></g><g transform="translate(-126,-14) scale(1,1)"><path fill="none" stroke="#000000" d="M 872 852 C 872 836.5360256 916.77152 824 972 824 C 1027.22848 824 1072 836.5360256 1072 852 C 1072 867.4639744 1027.22848 880 972 880 C 916.77152 880 872 867.4639744 872 852 Z" stroke-miterlimit="10"/></g><g transform="translate(-126,-14) scale(1,1)"><g><path fill="none" stroke="none"/><text fill="#000000" stroke="none" font-family="Arial" font-size="13px" font-style="normal" font-weight="bold" text-decoration="none" x="926" y="859">Ajouter du texte</text></g></g><g transform="translate(-126,-14) scale(1,1)"><path fill="#C0C0C0" stroke="none" d="M 871 706.5 C 871 691.312168 917.5623808 679 975 679 C 1032.4376192 679 1079 691.312168 1079 706.5 C 1079 721.687832 1032.4376192 734 975 734 C 917.5623808 734 871 721.687832 871 706.5 Z" opacity="0.2"/></g><g transform="translate(-126,-14) scale(1,1)"><path fill="#ffffff" stroke="none" d="M 864 699.5 C 864 684.312168 910.5623808 672 968 672 C 1025.4376192 672 1072 684.312168 1072 699.5 C 1072 714.687832 1025.4376192 727 968 727 C 910.5623808 727 864 714.687832 864 699.5 Z"/></g><g transform="translate(-126,-14) scale(1,1)"><path fill="none" stroke="#000000" d="M 864 699.5 C 864 684.312168 910.5623808 672 968 672 C 1025.4376192 672 1072 684.312168 1072 699.5 C 1072 714.687832 1025.4376192 727 968 727 C 910.5623808 727 864 714.687832 864 699.5 Z" stroke-miterlimit="10"/></g><g transform="translate(-126,-14) scale(1,1)"><g><path fill="none" stroke="none"/><text fill="#000000" stroke="none" font-family="Arial" font-size="13px" font-style="normal" font-weight="bold" text-decoration="none" x="916.5" y="706.5">Insérer une image</text></g></g><g transform="translate(-126,-14) scale(1,1)"><path fill="#ffffff" stroke="none" d="M 183.32072727272728 185.68 C 183.32072727272728 180.886167936 187.20656959767274 177 192 177 C 196.79343040232726 177 200.67927272727272 180.886167936 200.67927272727272 185.68 C 200.67927272727272 190.47383206400002 196.79343040232726 194.36 192 194.36 C 187.20656959767274 194.36 183.32072727272728 190.47383206400002 183.32072727272728 185.68 Z"/></g><g transform="translate(-126,-14) scale(1,1)"><path fill="none" stroke="#000000" d="M 183.32072727272728 185.68 C 183.32072727272728 180.886167936 187.20656959767274 177 192 177 C 196.79343040232726 177 200.67927272727272 180.886167936 200.67927272727272 185.68 C 200.67927272727272 190.47383206400002 196.79343040232726 194.36 192 194.36 C 187.20656959767274 194.36 183.32072727272728 190.47383206400002 183.32072727272728 185.68 Z" stroke-miterlimit="10"/></g><g transform="translate(-126,-14) scale(1,1)"><path fill="none" stroke="#000000" d="M 192 194.36 L 192 211.64" stroke-miterlimit="10"/></g><g transform="translate(-126,-14) scale(1,1)"><path fill="none" stroke="#000000" d="M 182.81018181818183 200.84 L 201.18981818181817 200.84" stroke-miterlimit="10"/></g><g transform="translate(-126,-14) scale(1,1)"><path fill="none" stroke="#000000" d="M 192 211.64 L 179.23636363636365 229" stroke-miterlimit="10"/></g><g transform="translate(-126,-14) scale(1,1)"><path fill="none" stroke="#000000" d="M 192 211.64 L 204.76363636363635 229" stroke-miterlimit="10"/></g><g transform="translate(-126,-14) scale(1,1)"><g><path fill="none" stroke="none"/><text fill="#000000" stroke="none" font-family="Arial" font-size="13px" font-style="normal" font-weight="bold" text-decoration="none" x="160" y="249.5">Application</text></g></g><g transform="translate(-126,-14) scale(1,1)"><path fill="none" stroke="#000000" d="M 871 830 L 624 775" stroke-miterlimit="10" stroke-dasharray="3"/></g><g transform="translate(-126,-14) scale(1,1)"><path fill="none" stroke="#000000" d="M 634.8346597209409 773.0999608605553 L 624 775 L 633.0047919205473 781.3177308005048" stroke-miterlimit="10"/></g><g transform="translate(-126,-14) scale(1,1)"><g><path fill="none" stroke="none"/><text fill="#000000" stroke="none" font-family="Arial" font-size="13px" font-style="normal" font-weight="normal" text-decoration="none" x="713.5" y="837.5">«extend»</text></g></g><g transform="translate(-126,-14) scale(1,1)"><path fill="none" stroke="#000000" d="M 863 713 L 624 743" stroke-miterlimit="10" stroke-dasharray="3"/></g><g transform="translate(-126,-14) scale(1,1)"><path fill="none" stroke="#000000" d="M 633.5592697774352 737.5575408754669 L 624 743 L 634.607824236104 745.9110247295281" stroke-miterlimit="10"/></g><g transform="translate(-126,-14) scale(1,1)"><g><path fill="none" stroke="none"/><text fill="#000000" stroke="none" font-family="Arial" font-size="13px" font-style="normal" font-weight="normal" text-decoration="none" x="719.5" y="763.5">«extend»</text></g></g><g transform="translate(-126,-14) scale(1,1)"><path fill="none" stroke="#000000" d="M 234 568 L 463 574" stroke-miterlimit="10"/></g><g transform="translate(-126,-14) scale(1,1)"><path fill="none" stroke="#000000" d="M 234 551 L 459 456" stroke-miterlimit="10"/></g></g></svg>