<svg version="1.1" xmlns="http://www.w3.org/2000/svg" xmlns:xlink="http://www.w3.org/1999/xlink" width="765" height="295"><defs/><g><text fill="#eeeeee" stroke="none" font-family="Arial" font-size="24px" font-style="normal" font-weight="normal" text-decoration="none" x="0" y="0">UNREGISTERED</text><text fill="#eeeeee" stroke="none" font-family="Arial" font-size="24px" font-style="normal" font-weight="normal" text-decoration="none" x="0" y="30">UNREGISTERED</text><text fill="#eeeeee" stroke="none" font-family="Arial" font-size="24px" font-style="normal" font-weight="normal" text-decoration="none" x="0" y="60">UNREGISTERED</text><text fill="#eeeeee" stroke="none" font-family="Arial" font-size="24px" font-style="normal" font-weight="normal" text-decoration="none" x="0" y="90">UNREGISTERED</text><text fill="#eeeeee" stroke="none" font-family="Arial" font-size="24px" font-style="normal" font-weight="normal" text-decoration="none" x="0" y="120">UNREGISTERED</text><text fill="#eeeeee" stroke="none" font-family="Arial" font-size="24px" font-style="normal" font-weight="normal" text-decoration="none" x="0" y="150">UNREGISTERED</text><text fill="#eeeeee" stroke="none" font-family="Arial" font-size="24px" font-style="normal" font-weight="normal" text-decoration="none" x="0" y="180">UNREGISTERED</text><text fill="#eeeeee" stroke="none" font-family="Arial" font-size="24px" font-style="normal" font-weight="normal" text-decoration="none" x="0" y="210">UNREGISTERED</text><text fill="#eeeeee" stroke="none" font-family="Arial" font-size="24px" font-style="normal" font-weight="normal" text-decoration="none" x="0" y="240">UNREGISTERED</text><text fill="#eeeeee" stroke="none" font-family="Arial" font-size="24px" font-style="normal" font-weight="normal" text-decoration="none" x="0" y="270">UNREGISTERED</text><text fill="#eeeeee" stroke="none" font-family="Arial" font-size="24px" font-style="normal" font-weight="normal" text-decoration="none" x="200" y="0">UNREGISTERED</text><text fill="#eeeeee" stroke="none" font-family="Arial" font-size="24px" font-style="normal" font-weight="normal" text-decoration="none" x="200" y="30">UNREGISTERED</text><text fill="#eeeeee" stroke="none" font-family="Arial" font-size="24px" font-style="normal" font-weight="normal" text-decoration="none" x="200" y="60">UNREGISTERED</text><text fill="#eeeeee" stroke="none" font-family="Arial" font-size="24px" font-style="normal" font-weight="normal" text-decoration="none" x="200" y="90">UNREGISTERED</text><text fill="#eeeeee" stroke="none" font-family="Arial" font-size="24px" font-style="normal" font-weight="normal" text-decoration="none" x="200" y="120">UNREGISTERED</text><text fill="#eeeeee" stroke="none" font-family="Arial" font-size="24px" font-style="normal" font-weight="normal" text-decoration="none" x="200" y="150">UNREGISTERED</text><text fill="#eeeeee" stroke="none" font-family="Arial" font-size="24px" font-style="normal" font-weight="normal" text-decoration="none" x="200" y="180">UNREGISTERED</text><text fill="#eeeeee" stroke="none" font-family="Arial" font-size="24px" font-style="normal" font-weight="normal" text-decoration="none" x="200" y="210">UNREGISTERED</text><text fill="#eeeeee" stroke="none" font-family="Arial" font-size="24px" font-style="normal" font-weight="normal" text-decoration="none" x="200" y="240">UNREGISTERED</text><text fill="#eeeeee" stroke="none" font-family="Arial" font-size="24px" font-style="normal" font-weight="normal" text-decoration="none" x="200" y="270">UNREGISTERED</text><text fill="#eeeeee" stroke="none" font-family="Arial" font-size="24px" font-style="normal" font-weight="normal" text-decoration="none" x="400" y="0">UNREGISTERED</text><text fill="#eeeeee" stroke="none" font-family="Arial" font-size="24px" font-style="normal" font-weight="normal" text-decoration="none" x="400" y="30">UNREGISTERED</text><text fill="#eeeeee" stroke="none" font-family="Arial" font-size="24px" font-style="normal" font-weight="normal" text-decoration="none" x="400" y="60">UNREGISTERED</text><text fill="#eeeeee" stroke="none" font-family="Arial" font-size="24px" font-style="normal" font-weight="normal" text-decoration="none" x="400" y="90">UNREGISTERED</text><text fill="#eeeeee" stroke="none" font-family="Arial" font-size="24px" font-style="normal" font-weight="normal" text-decoration="none" x="400" y="120">UNREGISTERED</text><text fill="#eeeeee" stroke="none" font-family="Arial" font-size="24px" font-style="normal" font-weight="normal" text-decoration="none" x="400" y="150">UNREGISTERED</text><text fill="#eeeeee" stroke="none" font-family="Arial" font-size="24px" font-style="normal" font-weight="normal" text-decoration="none" x="400" y="180">UNREGISTERED</text><text fill="#eeeeee" stroke="none" font-family="Arial" font-size="24px" font-style="normal" font-weight="normal" text-decoration="none" x="400" y="210">UNREGISTERED</text><text fill="#eeeeee" stroke="none" font-family="Arial" font-size="24px" font-style="normal" font-weight="normal" text-decoration="none" x="400" y="240">UNREGISTERED</text><text fill="#eeeeee" stroke="none" font-family="Arial" font-size="24px" font-style="normal" font-weight="normal" text-decoration="none" x="400" y="270">UNREGISTERED</text><text fill="#eeeeee" stroke="none" font-family="Arial" font-size="24px" font-style="normal" font-weight="normal" text-decoration="none" x="600" y="0">UNREGISTERED</text><text fill="#eeeeee" stroke="none" font-family="Arial" font-size="24px" font-style="normal" font-weight="normal" text-decoration="none" x="600" y="30">UNREGISTERED</text><text fill="#eeeeee" stroke="none" font-family="Arial" font-size="24px" font-style="normal" font-weight="normal" text-decoration="none" x="600" y="60">UNREGISTERED</text><text fill="#eeeeee" stroke="none" font-family="Arial" font-size="24px" font-style="normal" font-weight="normal" text-decoration="none" x="600" y="90">UNREGISTERED</text><text fill="#eeeeee" stroke="none" font-family="Arial" font-size="24px" font-style="normal" font-weight="normal" text-decoration="none" x="600" y="120">UNREGISTERED</text><text fill="#eeeeee" stroke="none" font-family="Arial" font-size="24px" font-style="normal" font-weight="normal" text-decoration="none" x="600" y="150">UNREGISTERED</text><text fill="#eeeeee" stroke="none" font-family="Arial" font-size="24px" font-style="normal" font-weight="normal" text-decoration="none" x="600" y="180">UNREGISTERED</text><text fill="#eeeeee" stroke="none" font-family="Arial" font-size="24px" font-style="normal" font-weight="normal" text-decoration="none" x="600" y="210">UNREGISTERED</text><text fill="#eeeeee" stroke="none" font-family="Arial" font-size="24px" font-style="normal" font-weight="normal" text-decoration="none" x="600" y="240">UNREGISTERED</text><text fill="#eeeeee" stroke="none" font-family="Arial" font-size="24px" font-style="normal" font-weight="normal" text-decoration="none" x="600" y="270">UNREGISTERED</text><g transform="translate(-174,-204) scale(1,1)"><rect fill="#C0C0C0" stroke="none" x="461" y="277" width="54" height="15" opacity="0.2"/></g><g transform="translate(-174,-204) scale(1,1)"><rect fill="#C0C0C0" stroke="none" x="461" y="291" width="135" height="26" opacity="0.2"/></g><g transform="translate(-174,-204) scale(1,1)"><rect fill="#ffffff" stroke="none" x="454" y="285" width="135" height="25"/></g><g transform="translate(-174,-204) scale(1,1)"><path fill="none" stroke="#000000" d="M 454 285 L 589 285 L 589 310 L 454 310 L 454 285 Z Z" stroke-miterlimit="10"/></g><g transform="translate(-174,-204) scale(1,1)"><rect fill="#ffffff" stroke="none" x="454" y="270" width="54" height="15"/></g><g transform="translate(-174,-204) scale(1,1)"><path fill="none" stroke="#000000" d="M 454 270 L 508 270 L 508 285 L 454 285 L 454 270 Z Z" stroke-miterlimit="10"/></g><g transform="translate(-174,-204) scale(1,1)"><rect fill="#ffffff" stroke="none" x="454" y="284" width="135" height="26"/></g><g transform="translate(-174,-204) scale(1,1)"><path fill="none" stroke="#000000" d="M 454 284 L 589 284 L 589 310 L 454 310 L 454 284 Z Z" stroke-miterlimit="10"/></g><g transform="translate(-174,-204) scale(1,1)"><g><path fill="none" stroke="none"/><text fill="#000000" stroke="none" font-family="Arial" font-size="13px" font-style="normal" font-weight="bold" text-decoration="none" x="500.181396484375" y="304.5">Modele</text></g></g><g transform="translate(-174,-204) scale(1,1)"><rect fill="#C0C0C0" stroke="none" x="645" y="405" width="60.799999999999955" height="15" opacity="0.2"/></g><g transform="translate(-174,-204) scale(1,1)"><rect fill="#C0C0C0" stroke="none" x="645" y="419" width="152" height="25" opacity="0.2"/></g><g transform="translate(-174,-204) scale(1,1)"><rect fill="#ffffff" stroke="none" x="638" y="413" width="152" height="24"/></g><g transform="translate(-174,-204) scale(1,1)"><path fill="none" stroke="#000000" d="M 638 413 L 790 413 L 790 437 L 638 437 L 638 413 Z Z" stroke-miterlimit="10"/></g><g transform="translate(-174,-204) scale(1,1)"><rect fill="#ffffff" stroke="none" x="638" y="398" width="60.799999999999955" height="15"/></g><g transform="translate(-174,-204) scale(1,1)"><path fill="none" stroke="#000000" d="M 638 398 L 698.8 398 L 698.8 413 L 638 413 L 638 398 Z Z" stroke-miterlimit="10"/></g><g transform="translate(-174,-204) scale(1,1)"><rect fill="#ffffff" stroke="none" x="638" y="412" width="152" height="25"/></g><g transform="translate(-174,-204) scale(1,1)"><path fill="none" stroke="#000000" d="M 638 412 L 790 412 L 790 437 L 638 437 L 638 412 Z Z" stroke-miterlimit="10"/></g><g transform="translate(-174,-204) scale(1,1)"><g><path fill="none" stroke="none"/><text fill="#000000" stroke="none" font-family="Arial" font-size="13px" font-style="normal" font-weight="bold" text-decoration="none" x="676.431396484375" y="432.5">TestUnitaires</text></g></g><g transform="translate(-174,-204) scale(1,1)"><rect fill="#C0C0C0" stroke="none" x="461" y="405" width="51.200000000000045" height="15" opacity="0.2"/></g><g transform="translate(-174,-204) scale(1,1)"><rect fill="#C0C0C0" stroke="none" x="461" y="419" width="128" height="26" opacity="0.2"/></g><g transform="translate(-174,-204) scale(1,1)"><rect fill="#ffffff" stroke="none" x="454" y="413" width="128" height="25"/></g><g transform="translate(-174,-204) scale(1,1)"><path fill="none" stroke="#000000" d="M 454 413 L 582 413 L 582 438 L 454 438 L 454 413 Z Z" stroke-miterlimit="10"/></g><g transform="translate(-174,-204) scale(1,1)"><rect fill="#ffffff" stroke="none" x="454" y="398" width="51.19999999999999" height="15"/></g><g transform="translate(-174,-204) scale(1,1)"><path fill="none" stroke="#000000" d="M 454 398 L 505.2 398 L 505.2 413 L 454 413 L 454 398 Z Z" stroke-miterlimit="10"/></g><g transform="translate(-174,-204) scale(1,1)"><rect fill="#ffffff" stroke="none" x="454" y="412" width="128" height="26"/></g><g transform="translate(-174,-204) scale(1,1)"><path fill="none" stroke="#000000" d="M 454 412 L 582 412 L 582 438 L 454 438 L 454 412 Z Z" stroke-miterlimit="10"/></g><g transform="translate(-174,-204) scale(1,1)"><g><path fill="none" stroke="none"/><text fill="#000000" stroke="none" font-family="Arial" font-size="13px" font-style="normal" font-weight="bold" text-decoration="none" x="469.224609375" y="432.5">TestFonctionnels</text></g></g><g transform="translate(-174,-204) scale(1,1)"><path fill="none" stroke="#000000" d="M 716 397 L 718 366 L 518 366 L 520 311" stroke-miterlimit="10" stroke-dasharray="3"/></g><g transform="translate(-174,-204) scale(1,1)"><path fill="none" stroke="#000000" d="M 523.8374296376205 321.3089346576798 L 520 311 L 515.4239549158333 321.0029901223421" stroke-miterlimit="10"/></g><g transform="translate(-174,-204) scale(1,1)"><path fill="none" stroke="#000000" d="M 518 397 L 521 311" stroke-miterlimit="10" stroke-dasharray="3"/></g><g transform="translate(-174,-204) scale(1,1)"><path fill="none" stroke="#000000" d="M 524.852662452706 321.30325152684867 L 521 311 L 516.4387447230259 321.0097427688366" stroke-miterlimit="10"/></g><g transform="translate(-174,-204) scale(1,1)"><rect fill="#C0C0C0" stroke="none" x="221" y="277" width="41.60000000000002" height="15" opacity="0.2"/></g><g transform="translate(-174,-204) scale(1,1)"><rect fill="#C0C0C0" stroke="none" x="221" y="291" width="104" height="26" opacity="0.2"/></g><g transform="translate(-174,-204) scale(1,1)"><rect fill="#ffffff" stroke="none" x="214" y="285" width="104" height="25"/></g><g transform="translate(-174,-204) scale(1,1)"><path fill="none" stroke="#000000" d="M 214 285 L 318 285 L 318 310 L 214 310 L 214 285 Z Z" stroke-miterlimit="10"/></g><g transform="translate(-174,-204) scale(1,1)"><rect fill="#ffffff" stroke="none" x="214" y="270" width="41.599999999999994" height="15"/></g><g transform="translate(-174,-204) scale(1,1)"><path fill="none" stroke="#000000" d="M 214 270 L 255.6 270 L 255.6 285 L 214 285 L 214 270 Z Z" stroke-miterlimit="10"/></g><g transform="translate(-174,-204) scale(1,1)"><rect fill="#ffffff" stroke="none" x="214" y="284" width="104" height="26"/></g><g transform="translate(-174,-204) scale(1,1)"><path fill="none" stroke="#000000" d="M 214 284 L 318 284 L 318 310 L 214 310 L 214 284 Z Z" stroke-miterlimit="10"/></g><g transform="translate(-174,-204) scale(1,1)"><g><path fill="none" stroke="none"/><text fill="#000000" stroke="none" font-family="Arial" font-size="13px" font-style="normal" font-weight="bold" text-decoration="none" x="252.27001953125" y="304.5">Data</text></g></g><g transform="translate(-174,-204) scale(1,1)"><path fill="none" stroke="#000000" d="M 319 290 L 453 290" stroke-miterlimit="10" stroke-dasharray="3"/></g><g transform="translate(-174,-204) scale(1,1)"><path fill="none" stroke="#000000" d="M 442.83732514237585 294.209517756016 L 453 290 L 442.83732514237585 285.790482243984" stroke-miterlimit="10"/></g><g transform="translate(-174,-204) scale(1,1)"><rect fill="#C0C0C0" stroke="none" x="725" y="277" width="51.200000000000045" height="15" opacity="0.2"/></g><g transform="translate(-174,-204) scale(1,1)"><rect fill="#C0C0C0" stroke="none" x="725" y="291" width="128" height="25" opacity="0.2"/></g><g transform="translate(-174,-204) scale(1,1)"><rect fill="#ffffff" stroke="none" x="718" y="285" width="128" height="24"/></g><g transform="translate(-174,-204) scale(1,1)"><path fill="none" stroke="#000000" d="M 718 285 L 846 285 L 846 309 L 718 309 L 718 285 Z Z" stroke-miterlimit="10"/></g><g transform="translate(-174,-204) scale(1,1)"><rect fill="#ffffff" stroke="none" x="718" y="270" width="51.200000000000045" height="15"/></g><g transform="translate(-174,-204) scale(1,1)"><path fill="none" stroke="#000000" d="M 718 270 L 769.2 270 L 769.2 285 L 718 285 L 718 270 Z Z" stroke-miterlimit="10"/></g><g transform="translate(-174,-204) scale(1,1)"><rect fill="#ffffff" stroke="none" x="718" y="284" width="128" height="25"/></g><g transform="translate(-174,-204) scale(1,1)"><path fill="none" stroke="#000000" d="M 718 284 L 846 284 L 846 309 L 718 309 L 718 284 Z Z" stroke-miterlimit="10"/></g><g transform="translate(-174,-204) scale(1,1)"><g><path fill="none" stroke="none"/><text fill="#000000" stroke="none" font-family="Arial" font-size="13px" font-style="normal" font-weight="bold" text-decoration="none" x="751.29638671875" y="304.5">UltraNotes</text></g></g><g transform="translate(-174,-204) scale(1,1)"><path fill="none" stroke="#000000" d="M 717 289 L 590 290" stroke-miterlimit="10" stroke-dasharray="3"/></g><g transform="translate(-174,-204) scale(1,1)"><path fill="none" stroke="#000000" d="M 600.1292150470941 285.71059415189916 L 590 290 L 600.1955046103504 294.12936868544375" stroke-miterlimit="10"/></g><g transform="translate(-174,-204) scale(1,1)"><path fill="none" stroke="#000000" d="M 782 269 L 782 214 L 262 214 L 265 269" stroke-miterlimit="10" stroke-dasharray="3"/></g><g transform="translate(-174,-204) scale(1,1)"><path fill="none" stroke="#000000" d="M 260.2432254625347 259.0816787710963 L 265 269 L 268.6497646669271 258.6231402690385" stroke-miterlimit="10"/></g><g transform="translate(-174,-204) scale(1,1)"><rect fill="#C0C0C0" stroke="none" x="191" y="407" width="65.44648437500001" height="15" opacity="0.2"/></g><g transform="translate(-174,-204) scale(1,1)"><rect fill="#C0C0C0" stroke="none" x="191" y="421" width="163.6162109375" height="25" opacity="0.2"/></g><g transform="translate(-174,-204) scale(1,1)"><rect fill="#ffffff" stroke="none" x="184" y="415" width="163.6162109375" height="24"/></g><g transform="translate(-174,-204) scale(1,1)"><path fill="none" stroke="#000000" d="M 184 415 L 347.6162109375 415 L 347.6162109375 439 L 184 439 L 184 415 Z Z" stroke-miterlimit="10"/></g><g transform="translate(-174,-204) scale(1,1)"><rect fill="#ffffff" stroke="none" x="184" y="400" width="65.44648437500001" height="15"/></g><g transform="translate(-174,-204) scale(1,1)"><path fill="none" stroke="#000000" d="M 184 400 L 249.446484375 400 L 249.446484375 415 L 184 415 L 184 400 Z Z" stroke-miterlimit="10"/></g><g transform="translate(-174,-204) scale(1,1)"><rect fill="#ffffff" stroke="none" x="184" y="414" width="163.6162109375" height="25"/></g><g transform="translate(-174,-204) scale(1,1)"><path fill="none" stroke="#000000" d="M 184 414 L 347.6162109375 414 L 347.6162109375 439 L 184 439 L 184 414 Z Z" stroke-miterlimit="10"/></g><g transform="translate(-174,-204) scale(1,1)"><g><path fill="none" stroke="none"/><text fill="#000000" stroke="none" font-family="Arial" font-size="13px" font-style="normal" font-weight="bold" text-decoration="none" x="193.552734375" y="434.5">DataContractPersistance</text></g></g><g transform="translate(-174,-204) scale(1,1)"><path fill="none" stroke="#000000" d="M 264 399 L 264 380 L 461 311" stroke-miterlimit="10" stroke-dasharray="3"/></g><g transform="translate(-174,-204) scale(1,1)"><path fill="none" stroke="#000000" d="M 452.8001479447669 318.33228656506884 L 461 311 L 450.017119455255 310.3865385587814" stroke-miterlimit="10"/></g><g transform="translate(-174,-204) scale(1,1)"><path fill="none" stroke="#000000" d="M 847 289 L 928 288 L 928 488 L 264 488 L 265 440" stroke-miterlimit="10" stroke-dasharray="3"/></g><g transform="translate(-174,-204) scale(1,1)"><path fill="none" stroke="#000000" d="M 268.9969280683424 450.24814939471986 L 265 440 L 260.57971900942056 450.07279087265897" stroke-miterlimit="10"/></g></g></svg>