<svg version="1.1" xmlns="http://www.w3.org/2000/svg" xmlns:xlink="http://www.w3.org/1999/xlink" width="652" height="244"><defs/><g><text fill="#eeeeee" stroke="none" font-family="Arial" font-size="24px" font-style="normal" font-weight="normal" text-decoration="none" x="0" y="0"></text><text fill="#eeeeee" stroke="none" font-family="Arial" font-size="24px" font-style="normal" font-weight="normal" text-decoration="none" x="0" y="30"></text><text fill="#eeeeee" stroke="none" font-family="Arial" font-size="24px" font-style="normal" font-weight="normal" text-decoration="none" x="0" y="60"></text><text fill="#eeeeee" stroke="none" font-family="Arial" font-size="24px" font-style="normal" font-weight="normal" text-decoration="none" x="0" y="90"></text><text fill="#eeeeee" stroke="none" font-family="Arial" font-size="24px" font-style="normal" font-weight="normal" text-decoration="none" x="0" y="120"></text><text fill="#eeeeee" stroke="none" font-family="Arial" font-size="24px" font-style="normal" font-weight="normal" text-decoration="none" x="0" y="150"></text><text fill="#eeeeee" stroke="none" font-family="Arial" font-size="24px" font-style="normal" font-weight="normal" text-decoration="none" x="0" y="180"></text><text fill="#eeeeee" stroke="none" font-family="Arial" font-size="24px" font-style="normal" font-weight="normal" text-decoration="none" x="0" y="210"></text><text fill="#eeeeee" stroke="none" font-family="Arial" font-size="24px" font-style="normal" font-weight="normal" text-decoration="none" x="0" y="240"></text><text fill="#eeeeee" stroke="none" font-family="Arial" font-size="24px" font-style="normal" font-weight="normal" text-decoration="none" x="200" y="0"></text><text fill="#eeeeee" stroke="none" font-family="Arial" font-size="24px" font-style="normal" font-weight="normal" text-decoration="none" x="200" y="30"></text><text fill="#eeeeee" stroke="none" font-family="Arial" font-size="24px" font-style="normal" font-weight="normal" text-decoration="none" x="200" y="60"></text><text fill="#eeeeee" stroke="none" font-family="Arial" font-size="24px" font-style="normal" font-weight="normal" text-decoration="none" x="200" y="90"></text><text fill="#eeeeee" stroke="none" font-family="Arial" font-size="24px" font-style="normal" font-weight="normal" text-decoration="none" x="200" y="120"></text><text fill="#eeeeee" stroke="none" font-family="Arial" font-size="24px" font-style="normal" font-weight="normal" text-decoration="none" x="200" y="150"></text><text fill="#eeeeee" stroke="none" font-family="Arial" font-size="24px" font-style="normal" font-weight="normal" text-decoration="none" x="200" y="180"></text><text fill="#eeeeee" stroke="none" font-family="Arial" font-size="24px" font-style="normal" font-weight="normal" text-decoration="none" x="200" y="210"></text><text fill="#eeeeee" stroke="none" font-family="Arial" font-size="24px" font-style="normal" font-weight="normal" text-decoration="none" x="200" y="240"></text><text fill="#eeeeee" stroke="none" font-family="Arial" font-size="24px" font-style="normal" font-weight="normal" text-decoration="none" x="400" y="0"></text><text fill="#eeeeee" stroke="none" font-family="Arial" font-size="24px" font-style="normal" font-weight="normal" text-decoration="none" x="400" y="30"></text><text fill="#eeeeee" stroke="none" font-family="Arial" font-size="24px" font-style="normal" font-weight="normal" text-decoration="none" x="400" y="60"></text><text fill="#eeeeee" stroke="none" font-family="Arial" font-size="24px" font-style="normal" font-weight="normal" text-decoration="none" x="400" y="90"></text><text fill="#eeeeee" stroke="none" font-family="Arial" font-size="24px" font-style="normal" font-weight="normal" text-decoration="none" x="400" y="120"></text><text fill="#eeeeee" stroke="none" font-family="Arial" font-size="24px" font-style="normal" font-weight="normal" text-decoration="none" x="400" y="150"></text><text fill="#eeeeee" stroke="none" font-family="Arial" font-size="24px" font-style="normal" font-weight="normal" text-decoration="none" x="400" y="180"></text><text fill="#eeeeee" stroke="none" font-family="Arial" font-size="24px" font-style="normal" font-weight="normal" text-decoration="none" x="400" y="210"></text><text fill="#eeeeee" stroke="none" font-family="Arial" font-size="24px" font-style="normal" font-weight="normal" text-decoration="none" x="400" y="240"></text><text fill="#eeeeee" stroke="none" font-family="Arial" font-size="24px" font-style="normal" font-weight="normal" text-decoration="none" x="600" y="0"></text><text fill="#eeeeee" stroke="none" font-family="Arial" font-size="24px" font-style="normal" font-weight="normal" text-decoration="none" x="600" y="30"></text><text fill="#eeeeee" stroke="none" font-family="Arial" font-size="24px" font-style="normal" font-weight="normal" text-decoration="none" x="600" y="60"></text><text fill="#eeeeee" stroke="none" font-family="Arial" font-size="24px" font-style="normal" font-weight="normal" text-decoration="none" x="600" y="90"></text><text fill="#eeeeee" stroke="none" font-family="Arial" font-size="24px" font-style="normal" font-weight="normal" text-decoration="none" x="600" y="120"></text><text fill="#eeeeee" stroke="none" font-family="Arial" font-size="24px" font-style="normal" font-weight="normal" text-decoration="none" x="600" y="150"></text><text fill="#eeeeee" stroke="none" font-family="Arial" font-size="24px" font-style="normal" font-weight="normal" text-decoration="none" x="600" y="180"></text><text fill="#eeeeee" stroke="none" font-family="Arial" font-size="24px" font-style="normal" font-weight="normal" text-decoration="none" x="600" y="210"></text><text fill="#eeeeee" stroke="none" font-family="Arial" font-size="24px" font-style="normal" font-weight="normal" text-decoration="none" x="600" y="240"></text><g transform="translate(-62,-102) scale(1,1)"><rect fill="#C0C0C0" stroke="none" x="319" y="175" width="54" height="15" opacity="0.2"/></g><g transform="translate(-62,-102) scale(1,1)"><rect fill="#C0C0C0" stroke="none" x="319" y="189" width="135" height="26" opacity="0.2"/></g><g transform="translate(-62,-102) scale(1,1)"><rect fill="#ffffff" stroke="none" x="312" y="183" width="135" height="25"/></g><g transform="translate(-62,-102) scale(1,1)"><path fill="none" stroke="#000000" d="M 312 183 L 447 183 L 447 208 L 312 208 L 312 183 Z Z" stroke-miterlimit="10"/></g><g transform="translate(-62,-102) scale(1,1)"><rect fill="#ffffff" stroke="none" x="312" y="168" width="54" height="15"/></g><g transform="translate(-62,-102) scale(1,1)"><path fill="none" stroke="#000000" d="M 312 168 L 366 168 L 366 183 L 312 183 L 312 168 Z Z" stroke-miterlimit="10"/></g><g transform="translate(-62,-102) scale(1,1)"><rect fill="#ffffff" stroke="none" x="312" y="182" width="135" height="26"/></g><g transform="translate(-62,-102) scale(1,1)"><path fill="none" stroke="#000000" d="M 312 182 L 447 182 L 447 208 L 312 208 L 312 182 Z Z" stroke-miterlimit="10"/></g><g transform="translate(-62,-102) scale(1,1)"><g><path fill="none" stroke="none"/><text fill="#000000" stroke="none" font-family="Arial" font-size="13px" font-style="normal" font-weight="bold" text-decoration="none" x="358.181396484375" y="202.5">Modele</text></g></g><g transform="translate(-62,-102) scale(1,1)"><rect fill="#C0C0C0" stroke="none" x="503" y="303" width="60.799999999999955" height="15" opacity="0.2"/></g><g transform="translate(-62,-102) scale(1,1)"><rect fill="#C0C0C0" stroke="none" x="503" y="317" width="152" height="25" opacity="0.2"/></g><g transform="translate(-62,-102) scale(1,1)"><rect fill="#ffffff" stroke="none" x="496" y="311" width="152" height="24"/></g><g transform="translate(-62,-102) scale(1,1)"><path fill="none" stroke="#000000" d="M 496 311 L 648 311 L 648 335 L 496 335 L 496 311 Z Z" stroke-miterlimit="10"/></g><g transform="translate(-62,-102) scale(1,1)"><rect fill="#ffffff" stroke="none" x="496" y="296" width="60.799999999999955" height="15"/></g><g transform="translate(-62,-102) scale(1,1)"><path fill="none" stroke="#000000" d="M 496 296 L 556.8 296 L 556.8 311 L 496 311 L 496 296 Z Z" stroke-miterlimit="10"/></g><g transform="translate(-62,-102) scale(1,1)"><rect fill="#ffffff" stroke="none" x="496" y="310" width="152" height="25"/></g><g transform="translate(-62,-102) scale(1,1)"><path fill="none" stroke="#000000" d="M 496 310 L 648 310 L 648 335 L 496 335 L 496 310 Z Z" stroke-miterlimit="10"/></g><g transform="translate(-62,-102) scale(1,1)"><g><path fill="none" stroke="none"/><text fill="#000000" stroke="none" font-family="Arial" font-size="13px" font-style="normal" font-weight="bold" text-decoration="none" x="534.431396484375" y="330.5">TestUnitaires</text></g></g><g transform="translate(-62,-102) scale(1,1)"><rect fill="#C0C0C0" stroke="none" x="319" y="303" width="51.19999999999999" height="15" opacity="0.2"/></g><g transform="translate(-62,-102) scale(1,1)"><rect fill="#C0C0C0" stroke="none" x="319" y="317" width="128" height="26" opacity="0.2"/></g><g transform="translate(-62,-102) scale(1,1)"><rect fill="#ffffff" stroke="none" x="312" y="311" width="128" height="25"/></g><g transform="translate(-62,-102) scale(1,1)"><path fill="none" stroke="#000000" d="M 312 311 L 440 311 L 440 336 L 312 336 L 312 311 Z Z" stroke-miterlimit="10"/></g><g transform="translate(-62,-102) scale(1,1)"><rect fill="#ffffff" stroke="none" x="312" y="296" width="51.19999999999999" height="15"/></g><g transform="translate(-62,-102) scale(1,1)"><path fill="none" stroke="#000000" d="M 312 296 L 363.2 296 L 363.2 311 L 312 311 L 312 296 Z Z" stroke-miterlimit="10"/></g><g transform="translate(-62,-102) scale(1,1)"><rect fill="#ffffff" stroke="none" x="312" y="310" width="128" height="26"/></g><g transform="translate(-62,-102) scale(1,1)"><path fill="none" stroke="#000000" d="M 312 310 L 440 310 L 440 336 L 312 336 L 312 310 Z Z" stroke-miterlimit="10"/></g><g transform="translate(-62,-102) scale(1,1)"><g><path fill="none" stroke="none"/><text fill="#000000" stroke="none" font-family="Arial" font-size="13px" font-style="normal" font-weight="bold" text-decoration="none" x="327.224609375" y="330.5">TestFonctionnels</text></g></g><g transform="translate(-62,-102) scale(1,1)"><path fill="none" stroke="#000000" d="M 574 295 L 576 264 L 376 264 L 378 209" stroke-miterlimit="10" stroke-dasharray="3"/></g><g transform="translate(-62,-102) scale(1,1)"><path fill="none" stroke="#000000" d="M 381.83742963762046 219.3089346576798 L 378 209 L 373.4239549158333 219.00299012234208" stroke-miterlimit="10"/></g><g transform="translate(-62,-102) scale(1,1)"><path fill="none" stroke="#000000" d="M 376 295 L 379 209" stroke-miterlimit="10" stroke-dasharray="3"/></g><g transform="translate(-62,-102) scale(1,1)"><path fill="none" stroke="#000000" d="M 382.852662452706 219.30325152684867 L 379 209 L 374.4387447230259 219.00974276883656" stroke-miterlimit="10"/></g><g transform="translate(-62,-102) scale(1,1)"><rect fill="#C0C0C0" stroke="none" x="79" y="175" width="41.599999999999994" height="15" opacity="0.2"/></g><g transform="translate(-62,-102) scale(1,1)"><rect fill="#C0C0C0" stroke="none" x="79" y="189" width="104" height="26" opacity="0.2"/></g><g transform="translate(-62,-102) scale(1,1)"><rect fill="#ffffff" stroke="none" x="72" y="183" width="104" height="25"/></g><g transform="translate(-62,-102) scale(1,1)"><path fill="none" stroke="#000000" d="M 72 183 L 176 183 L 176 208 L 72 208 L 72 183 Z Z" stroke-miterlimit="10"/></g><g transform="translate(-62,-102) scale(1,1)"><rect fill="#ffffff" stroke="none" x="72" y="168" width="41.599999999999994" height="15"/></g><g transform="translate(-62,-102) scale(1,1)"><path fill="none" stroke="#000000" d="M 72 168 L 113.6 168 L 113.6 183 L 72 183 L 72 168 Z Z" stroke-miterlimit="10"/></g><g transform="translate(-62,-102) scale(1,1)"><rect fill="#ffffff" stroke="none" x="72" y="182" width="104" height="26"/></g><g transform="translate(-62,-102) scale(1,1)"><path fill="none" stroke="#000000" d="M 72 182 L 176 182 L 176 208 L 72 208 L 72 182 Z Z" stroke-miterlimit="10"/></g><g transform="translate(-62,-102) scale(1,1)"><g><path fill="none" stroke="none"/><text fill="#000000" stroke="none" font-family="Arial" font-size="13px" font-style="normal" font-weight="bold" text-decoration="none" x="110.27001953125" y="202.5">Data</text></g></g><g transform="translate(-62,-102) scale(1,1)"><path fill="none" stroke="#000000" d="M 177 188 L 311 188" stroke-miterlimit="10" stroke-dasharray="3"/></g><g transform="translate(-62,-102) scale(1,1)"><path fill="none" stroke="#000000" d="M 300.83732514237585 192.209517756016 L 311 188 L 300.83732514237585 183.790482243984" stroke-miterlimit="10"/></g><g transform="translate(-62,-102) scale(1,1)"><rect fill="#C0C0C0" stroke="none" x="583" y="175" width="51.200000000000045" height="15" opacity="0.2"/></g><g transform="translate(-62,-102) scale(1,1)"><rect fill="#C0C0C0" stroke="none" x="583" y="189" width="128" height="25" opacity="0.2"/></g><g transform="translate(-62,-102) scale(1,1)"><rect fill="#ffffff" stroke="none" x="576" y="183" width="128" height="24"/></g><g transform="translate(-62,-102) scale(1,1)"><path fill="none" stroke="#000000" d="M 576 183 L 704 183 L 704 207 L 576 207 L 576 183 Z Z" stroke-miterlimit="10"/></g><g transform="translate(-62,-102) scale(1,1)"><rect fill="#ffffff" stroke="none" x="576" y="168" width="51.200000000000045" height="15"/></g><g transform="translate(-62,-102) scale(1,1)"><path fill="none" stroke="#000000" d="M 576 168 L 627.2 168 L 627.2 183 L 576 183 L 576 168 Z Z" stroke-miterlimit="10"/></g><g transform="translate(-62,-102) scale(1,1)"><rect fill="#ffffff" stroke="none" x="576" y="182" width="128" height="25"/></g><g transform="translate(-62,-102) scale(1,1)"><path fill="none" stroke="#000000" d="M 576 182 L 704 182 L 704 207 L 576 207 L 576 182 Z Z" stroke-miterlimit="10"/></g><g transform="translate(-62,-102) scale(1,1)"><g><path fill="none" stroke="none"/><text fill="#000000" stroke="none" font-family="Arial" font-size="13px" font-style="normal" font-weight="bold" text-decoration="none" x="609.29638671875" y="202.5">UltraNotes</text></g></g><g transform="translate(-62,-102) scale(1,1)"><path fill="none" stroke="#000000" d="M 575 187 L 448 188" stroke-miterlimit="10" stroke-dasharray="3"/></g><g transform="translate(-62,-102) scale(1,1)"><path fill="none" stroke="#000000" d="M 458.12921504709414 183.7105941518992 L 448 188 L 458.1955046103504 192.12936868544378" stroke-miterlimit="10"/></g><g transform="translate(-62,-102) scale(1,1)"><path fill="none" stroke="#000000" d="M 640 167 L 640 112 L 120 112 L 123 167" stroke-miterlimit="10" stroke-dasharray="3"/></g><g transform="translate(-62,-102) scale(1,1)"><path fill="none" stroke="#000000" d="M 118.24322546253475 157.08167877109628 L 123 167 L 126.64976466692714 156.62314026903852" stroke-miterlimit="10"/></g></g></svg>