<svg version="1.1" xmlns="http://www.w3.org/2000/svg" xmlns:xlink="http://www.w3.org/1999/xlink" width="972" height="572"><defs/><g><text fill="#eeeeee" stroke="none" font-family="Arial" font-size="24px" font-style="normal" font-weight="normal" text-decoration="none" x="0" y="0"></text><text fill="#eeeeee" stroke="none" font-family="Arial" font-size="24px" font-style="normal" font-weight="normal" text-decoration="none" x="0" y="30"></text><text fill="#eeeeee" stroke="none" font-family="Arial" font-size="24px" font-style="normal" font-weight="normal" text-decoration="none" x="0" y="60"></text><text fill="#eeeeee" stroke="none" font-family="Arial" font-size="24px" font-style="normal" font-weight="normal" text-decoration="none" x="0" y="90"></text><text fill="#eeeeee" stroke="none" font-family="Arial" font-size="24px" font-style="normal" font-weight="normal" text-decoration="none" x="0" y="120"></text><text fill="#eeeeee" stroke="none" font-family="Arial" font-size="24px" font-style="normal" font-weight="normal" text-decoration="none" x="0" y="150"></text><text fill="#eeeeee" stroke="none" font-family="Arial" font-size="24px" font-style="normal" font-weight="normal" text-decoration="none" x="0" y="180"></text><text fill="#eeeeee" stroke="none" font-family="Arial" font-size="24px" font-style="normal" font-weight="normal" text-decoration="none" x="0" y="210"></text><text fill="#eeeeee" stroke="none" font-family="Arial" font-size="24px" font-style="normal" font-weight="normal" text-decoration="none" x="0" y="240"></text><text fill="#eeeeee" stroke="none" font-family="Arial" font-size="24px" font-style="normal" font-weight="normal" text-decoration="none" x="0" y="270"></text><text fill="#eeeeee" stroke="none" font-family="Arial" font-size="24px" font-style="normal" font-weight="normal" text-decoration="none" x="0" y="300"></text><text fill="#eeeeee" stroke="none" font-family="Arial" font-size="24px" font-style="normal" font-weight="normal" text-decoration="none" x="0" y="330"></text><text fill="#eeeeee" stroke="none" font-family="Arial" font-size="24px" font-style="normal" font-weight="normal" text-decoration="none" x="0" y="360"></text><text fill="#eeeeee" stroke="none" font-family="Arial" font-size="24px" font-style="normal" font-weight="normal" text-decoration="none" x="0" y="390"></text><text fill="#eeeeee" stroke="none" font-family="Arial" font-size="24px" font-style="normal" font-weight="normal" text-decoration="none" x="0" y="420"></text><text fill="#eeeeee" stroke="none" font-family="Arial" font-size="24px" font-style="normal" font-weight="normal" text-decoration="none" x="0" y="450"></text><text fill="#eeeeee" stroke="none" font-family="Arial" font-size="24px" font-style="normal" font-weight="normal" text-decoration="none" x="0" y="480"></text><text fill="#eeeeee" stroke="none" font-family="Arial" font-size="24px" font-style="normal" font-weight="normal" text-decoration="none" x="0" y="510"></text><text fill="#eeeeee" stroke="none" font-family="Arial" font-size="24px" font-style="normal" font-weight="normal" text-decoration="none" x="0" y="540"></text><text fill="#eeeeee" stroke="none" font-family="Arial" font-size="24px" font-style="normal" font-weight="normal" text-decoration="none" x="0" y="570"></text><text fill="#eeeeee" stroke="none" font-family="Arial" font-size="24px" font-style="normal" font-weight="normal" text-decoration="none" x="200" y="0"></text><text fill="#eeeeee" stroke="none" font-family="Arial" font-size="24px" font-style="normal" font-weight="normal" text-decoration="none" x="200" y="30"></text><text fill="#eeeeee" stroke="none" font-family="Arial" font-size="24px" font-style="normal" font-weight="normal" text-decoration="none" x="200" y="60"></text><text fill="#eeeeee" stroke="none" font-family="Arial" font-size="24px" font-style="normal" font-weight="normal" text-decoration="none" x="200" y="90"></text><text fill="#eeeeee" stroke="none" font-family="Arial" font-size="24px" font-style="normal" font-weight="normal" text-decoration="none" x="200" y="120"></text><text fill="#eeeeee" stroke="none" font-family="Arial" font-size="24px" font-style="normal" font-weight="normal" text-decoration="none" x="200" y="150"></text><text fill="#eeeeee" stroke="none" font-family="Arial" font-size="24px" font-style="normal" font-weight="normal" text-decoration="none" x="200" y="180"></text><text fill="#eeeeee" stroke="none" font-family="Arial" font-size="24px" font-style="normal" font-weight="normal" text-decoration="none" x="200" y="210"></text><text fill="#eeeeee" stroke="none" font-family="Arial" font-size="24px" font-style="normal" font-weight="normal" text-decoration="none" x="200" y="240"></text><text fill="#eeeeee" stroke="none" font-family="Arial" font-size="24px" font-style="normal" font-weight="normal" text-decoration="none" x="200" y="270"></text><text fill="#eeeeee" stroke="none" font-family="Arial" font-size="24px" font-style="normal" font-weight="normal" text-decoration="none" x="200" y="300"></text><text fill="#eeeeee" stroke="none" font-family="Arial" font-size="24px" font-style="normal" font-weight="normal" text-decoration="none" x="200" y="330"></text><text fill="#eeeeee" stroke="none" font-family="Arial" font-size="24px" font-style="normal" font-weight="normal" text-decoration="none" x="200" y="360"></text><text fill="#eeeeee" stroke="none" font-family="Arial" font-size="24px" font-style="normal" font-weight="normal" text-decoration="none" x="200" y="390"></text><text fill="#eeeeee" stroke="none" font-family="Arial" font-size="24px" font-style="normal" font-weight="normal" text-decoration="none" x="200" y="420"></text><text fill="#eeeeee" stroke="none" font-family="Arial" font-size="24px" font-style="normal" font-weight="normal" text-decoration="none" x="200" y="450"></text><text fill="#eeeeee" stroke="none" font-family="Arial" font-size="24px" font-style="normal" font-weight="normal" text-decoration="none" x="200" y="480"></text><text fill="#eeeeee" stroke="none" font-family="Arial" font-size="24px" font-style="normal" font-weight="normal" text-decoration="none" x="200" y="510"></text><text fill="#eeeeee" stroke="none" font-family="Arial" font-size="24px" font-style="normal" font-weight="normal" text-decoration="none" x="200" y="540"></text><text fill="#eeeeee" stroke="none" font-family="Arial" font-size="24px" font-style="normal" font-weight="normal" text-decoration="none" x="200" y="570"></text><text fill="#eeeeee" stroke="none" font-family="Arial" font-size="24px" font-style="normal" font-weight="normal" text-decoration="none" x="400" y="0"></text><text fill="#eeeeee" stroke="none" font-family="Arial" font-size="24px" font-style="normal" font-weight="normal" text-decoration="none" x="400" y="30"></text><text fill="#eeeeee" stroke="none" font-family="Arial" font-size="24px" font-style="normal" font-weight="normal" text-decoration="none" x="400" y="60"></text><text fill="#eeeeee" stroke="none" font-family="Arial" font-size="24px" font-style="normal" font-weight="normal" text-decoration="none" x="400" y="90"></text><text fill="#eeeeee" stroke="none" font-family="Arial" font-size="24px" font-style="normal" font-weight="normal" text-decoration="none" x="400" y="120"></text><text fill="#eeeeee" stroke="none" font-family="Arial" font-size="24px" font-style="normal" font-weight="normal" text-decoration="none" x="400" y="150"></text><text fill="#eeeeee" stroke="none" font-family="Arial" font-size="24px" font-style="normal" font-weight="normal" text-decoration="none" x="400" y="180"></text><text fill="#eeeeee" stroke="none" font-family="Arial" font-size="24px" font-style="normal" font-weight="normal" text-decoration="none" x="400" y="210"></text><text fill="#eeeeee" stroke="none" font-family="Arial" font-size="24px" font-style="normal" font-weight="normal" text-decoration="none" x="400" y="240"></text><text fill="#eeeeee" stroke="none" font-family="Arial" font-size="24px" font-style="normal" font-weight="normal" text-decoration="none" x="400" y="270"></text><text fill="#eeeeee" stroke="none" font-family="Arial" font-size="24px" font-style="normal" font-weight="normal" text-decoration="none" x="400" y="300"></text><text fill="#eeeeee" stroke="none" font-family="Arial" font-size="24px" font-style="normal" font-weight="normal" text-decoration="none" x="400" y="330"></text><text fill="#eeeeee" stroke="none" font-family="Arial" font-size="24px" font-style="normal" font-weight="normal" text-decoration="none" x="400" y="360"></text><text fill="#eeeeee" stroke="none" font-family="Arial" font-size="24px" font-style="normal" font-weight="normal" text-decoration="none" x="400" y="390"></text><text fill="#eeeeee" stroke="none" font-family="Arial" font-size="24px" font-style="normal" font-weight="normal" text-decoration="none" x="400" y="420"></text><text fill="#eeeeee" stroke="none" font-family="Arial" font-size="24px" font-style="normal" font-weight="normal" text-decoration="none" x="400" y="450"></text><text fill="#eeeeee" stroke="none" font-family="Arial" font-size="24px" font-style="normal" font-weight="normal" text-decoration="none" x="400" y="480"></text><text fill="#eeeeee" stroke="none" font-family="Arial" font-size="24px" font-style="normal" font-weight="normal" text-decoration="none" x="400" y="510"></text><text fill="#eeeeee" stroke="none" font-family="Arial" font-size="24px" font-style="normal" font-weight="normal" text-decoration="none" x="400" y="540"></text><text fill="#eeeeee" stroke="none" font-family="Arial" font-size="24px" font-style="normal" font-weight="normal" text-decoration="none" x="400" y="570"></text><text fill="#eeeeee" stroke="none" font-family="Arial" font-size="24px" font-style="normal" font-weight="normal" text-decoration="none" x="600" y="0"></text><text fill="#eeeeee" stroke="none" font-family="Arial" font-size="24px" font-style="normal" font-weight="normal" text-decoration="none" x="600" y="30"></text><text fill="#eeeeee" stroke="none" font-family="Arial" font-size="24px" font-style="normal" font-weight="normal" text-decoration="none" x="600" y="60"></text><text fill="#eeeeee" stroke="none" font-family="Arial" font-size="24px" font-style="normal" font-weight="normal" text-decoration="none" x="600" y="90"></text><text fill="#eeeeee" stroke="none" font-family="Arial" font-size="24px" font-style="normal" font-weight="normal" text-decoration="none" x="600" y="120"></text><text fill="#eeeeee" stroke="none" font-family="Arial" font-size="24px" font-style="normal" font-weight="normal" text-decoration="none" x="600" y="150"></text><text fill="#eeeeee" stroke="none" font-family="Arial" font-size="24px" font-style="normal" font-weight="normal" text-decoration="none" x="600" y="180"></text><text fill="#eeeeee" stroke="none" font-family="Arial" font-size="24px" font-style="normal" font-weight="normal" text-decoration="none" x="600" y="210"></text><text fill="#eeeeee" stroke="none" font-family="Arial" font-size="24px" font-style="normal" font-weight="normal" text-decoration="none" x="600" y="240"></text><text fill="#eeeeee" stroke="none" font-family="Arial" font-size="24px" font-style="normal" font-weight="normal" text-decoration="none" x="600" y="270"></text><text fill="#eeeeee" stroke="none" font-family="Arial" font-size="24px" font-style="normal" font-weight="normal" text-decoration="none" x="600" y="300"></text><text fill="#eeeeee" stroke="none" font-family="Arial" font-size="24px" font-style="normal" font-weight="normal" text-decoration="none" x="600" y="330"></text><text fill="#eeeeee" stroke="none" font-family="Arial" font-size="24px" font-style="normal" font-weight="normal" text-decoration="none" x="600" y="360"></text><text fill="#eeeeee" stroke="none" font-family="Arial" font-size="24px" font-style="normal" font-weight="normal" text-decoration="none" x="600" y="390"></text><text fill="#eeeeee" stroke="none" font-family="Arial" font-size="24px" font-style="normal" font-weight="normal" text-decoration="none" x="600" y="420"></text><text fill="#eeeeee" stroke="none" font-family="Arial" font-size="24px" font-style="normal" font-weight="normal" text-decoration="none" x="600" y="450"></text><text fill="#eeeeee" stroke="none" font-family="Arial" font-size="24px" font-style="normal" font-weight="normal" text-decoration="none" x="600" y="480"></text><text fill="#eeeeee" stroke="none" font-family="Arial" font-size="24px" font-style="normal" font-weight="normal" text-decoration="none" x="600" y="510"></text><text fill="#eeeeee" stroke="none" font-family="Arial" font-size="24px" font-style="normal" font-weight="normal" text-decoration="none" x="600" y="540"></text><text fill="#eeeeee" stroke="none" font-family="Arial" font-size="24px" font-style="normal" font-weight="normal" text-decoration="none" x="600" y="570"></text><text fill="#eeeeee" stroke="none" font-family="Arial" font-size="24px" font-style="normal" font-weight="normal" text-decoration="none" x="800" y="0"></text><text fill="#eeeeee" stroke="none" font-family="Arial" font-size="24px" font-style="normal" font-weight="normal" text-decoration="none" x="800" y="30"></text><text fill="#eeeeee" stroke="none" font-family="Arial" font-size="24px" font-style="normal" font-weight="normal" text-decoration="none" x="800" y="60"></text><text fill="#eeeeee" stroke="none" font-family="Arial" font-size="24px" font-style="normal" font-weight="normal" text-decoration="none" x="800" y="90"></text><text fill="#eeeeee" stroke="none" font-family="Arial" font-size="24px" font-style="normal" font-weight="normal" text-decoration="none" x="800" y="120"></text><text fill="#eeeeee" stroke="none" font-family="Arial" font-size="24px" font-style="normal" font-weight="normal" text-decoration="none" x="800" y="150"></text><text fill="#eeeeee" stroke="none" font-family="Arial" font-size="24px" font-style="normal" font-weight="normal" text-decoration="none" x="800" y="180"></text><text fill="#eeeeee" stroke="none" font-family="Arial" font-size="24px" font-style="normal" font-weight="normal" text-decoration="none" x="800" y="210"></text><text fill="#eeeeee" stroke="none" font-family="Arial" font-size="24px" font-style="normal" font-weight="normal" text-decoration="none" x="800" y="240"></text><text fill="#eeeeee" stroke="none" font-family="Arial" font-size="24px" font-style="normal" font-weight="normal" text-decoration="none" x="800" y="270"></text><text fill="#eeeeee" stroke="none" font-family="Arial" font-size="24px" font-style="normal" font-weight="normal" text-decoration="none" x="800" y="300"></text><text fill="#eeeeee" stroke="none" font-family="Arial" font-size="24px" font-style="normal" font-weight="normal" text-decoration="none" x="800" y="330"></text><text fill="#eeeeee" stroke="none" font-family="Arial" font-size="24px" font-style="normal" font-weight="normal" text-decoration="none" x="800" y="360"></text><text fill="#eeeeee" stroke="none" font-family="Arial" font-size="24px" font-style="normal" font-weight="normal" text-decoration="none" x="800" y="390"></text><text fill="#eeeeee" stroke="none" font-family="Arial" font-size="24px" font-style="normal" font-weight="normal" text-decoration="none" x="800" y="420"></text><text fill="#eeeeee" stroke="none" font-family="Arial" font-size="24px" font-style="normal" font-weight="normal" text-decoration="none" x="800" y="450"></text><text fill="#eeeeee" stroke="none" font-family="Arial" font-size="24px" font-style="normal" font-weight="normal" text-decoration="none" x="800" y="480"></text><text fill="#eeeeee" stroke="none" font-family="Arial" font-size="24px" font-style="normal" font-weight="normal" text-decoration="none" x="800" y="510"></text><text fill="#eeeeee" stroke="none" font-family="Arial" font-size="24px" font-style="normal" font-weight="normal" text-decoration="none" x="800" y="540"></text><text fill="#eeeeee" stroke="none" font-family="Arial" font-size="24px" font-style="normal" font-weight="normal" text-decoration="none" x="800" y="570"></text><g transform="translate(-118,-382) scale(1,1)"><rect fill="#C0C0C0" stroke="none" x="783" y="455" width="121.60000000000002" height="15" opacity="0.2"/></g><g transform="translate(-118,-382) scale(1,1)"><rect fill="#C0C0C0" stroke="none" x="783" y="469" width="304" height="170" opacity="0.2"/></g><g transform="translate(-118,-382) scale(1,1)"><rect fill="#ffffff" stroke="none" x="776" y="463" width="304" height="169"/></g><g transform="translate(-118,-382) scale(1,1)"><path fill="none" stroke="#000000" d="M 776 463 L 1080 463 L 1080 632 L 776 632 L 776 463 Z Z" stroke-miterlimit="10"/></g><g transform="translate(-118,-382) scale(1,1)"><rect fill="#ffffff" stroke="none" x="776" y="448" width="121.60000000000002" height="15"/></g><g transform="translate(-118,-382) scale(1,1)"><path fill="none" stroke="#000000" d="M 776 448 L 897.6 448 L 897.6 463 L 776 463 L 776 448 Z Z" stroke-miterlimit="10"/></g><g transform="translate(-118,-382) scale(1,1)"><rect fill="#ffffff" stroke="none" x="776" y="462" width="304" height="170"/></g><g transform="translate(-118,-382) scale(1,1)"><path fill="none" stroke="#000000" d="M 776 462 L 1080 462 L 1080 632 L 776 632 L 776 462 Z Z" stroke-miterlimit="10"/></g><g transform="translate(-118,-382) scale(1,1)"><g><path fill="none" stroke="none"/><text fill="#000000" stroke="none" font-family="Arial" font-size="13px" font-style="normal" font-weight="bold" text-decoration="none" x="906.681396484375" y="482.5">Modele</text></g></g><g transform="translate(-118,-382) scale(1,1)"><rect fill="#C0C0C0" stroke="none" x="135" y="399" width="204.8" height="15" opacity="0.2"/></g><g transform="translate(-118,-382) scale(1,1)"><rect fill="#C0C0C0" stroke="none" x="135" y="413" width="512" height="538" opacity="0.2"/></g><g transform="translate(-118,-382) scale(1,1)"><rect fill="#ffffff" stroke="none" x="128" y="407" width="512" height="537"/></g><g transform="translate(-118,-382) scale(1,1)"><path fill="none" stroke="#000000" d="M 128 407 L 640 407 L 640 944 L 128 944 L 128 407 Z Z" stroke-miterlimit="10"/></g><g transform="translate(-118,-382) scale(1,1)"><rect fill="#ffffff" stroke="none" x="128" y="392" width="204.8" height="15"/></g><g transform="translate(-118,-382) scale(1,1)"><path fill="none" stroke="#000000" d="M 128 392 L 332.8 392 L 332.8 407 L 128 407 L 128 392 Z Z" stroke-miterlimit="10"/></g><g transform="translate(-118,-382) scale(1,1)"><rect fill="#ffffff" stroke="none" x="128" y="406" width="512" height="538"/></g><g transform="translate(-118,-382) scale(1,1)"><path fill="none" stroke="#000000" d="M 128 406 L 640 406 L 640 944 L 128 944 L 128 406 Z Z" stroke-miterlimit="10"/></g><g transform="translate(-118,-382) scale(1,1)"><g><path fill="none" stroke="none"/><text fill="#000000" stroke="none" font-family="Arial" font-size="13px" font-style="normal" font-weight="bold" text-decoration="none" x="370.27001953125" y="426.5">Data</text></g></g><g transform="translate(-118,-382) scale(1,1)"><rect fill="#C0C0C0" stroke="none" x="199" y="447" width="263.0078125" height="60" opacity="0.2"/></g><g transform="translate(-118,-382) scale(1,1)"><rect fill="#ffffff" stroke="none" x="192" y="440" width="263.0078125" height="60"/></g><g transform="translate(-118,-382) scale(1,1)"><path fill="none" stroke="#000000" d="M 192 440 L 455.0078125 440 L 455.0078125 500 L 192 500 L 192 440 Z Z" stroke-miterlimit="10"/></g><g transform="translate(-118,-382) scale(1,1)"><path fill="none" stroke="#000000" d="M 192 478 L 455.0078125 478" stroke-miterlimit="10"/></g><g transform="translate(-118,-382) scale(1,1)"><g><path fill="none" stroke="none"/><text fill="#000000" stroke="none" font-family="Arial" font-size="13px" font-style="normal" font-weight="normal" text-decoration="none" x="291.343505859375" y="457.5">«interface»</text></g></g><g transform="translate(-118,-382) scale(1,1)"><g><path fill="none" stroke="none"/><text fill="#000000" stroke="none" font-family="Arial" font-size="13px" font-style="normal" font-weight="bold" text-decoration="none" x="297.488037109375" y="472.5">ISauveur</text></g></g><g transform="translate(-118,-382) scale(1,1)"><g><path fill="none" stroke="none"/><text fill="#000000" stroke="none" font-family="Arial" font-size="13px" font-style="normal" font-weight="normal" text-decoration="none" x="197" y="495.5">+SauveurBouquin(chemin: string): void</text></g></g><g transform="translate(-118,-382) scale(1,1)"><rect fill="#C0C0C0" stroke="none" x="199" y="567" width="50.919921875" height="44" opacity="0.2"/></g><g transform="translate(-118,-382) scale(1,1)"><rect fill="#ffffff" stroke="none" x="192" y="560" width="50.919921875" height="44"/></g><g transform="translate(-118,-382) scale(1,1)"><path fill="none" stroke="#000000" d="M 192 560 L 242.919921875 560 L 242.919921875 604 L 192 604 L 192 560 Z Z" stroke-miterlimit="10"/></g><g transform="translate(-118,-382) scale(1,1)"><path fill="none" stroke="#000000" d="M 192 585 L 242.919921875 585" stroke-miterlimit="10"/></g><g transform="translate(-118,-382) scale(1,1)"><path fill="none" stroke="#000000" d="M 192 595 L 242.919921875 595" stroke-miterlimit="10"/></g><g transform="translate(-118,-382) scale(1,1)"><g><path fill="none" stroke="none"/><text fill="#000000" stroke="none" font-family="Arial" font-size="13px" font-style="normal" font-weight="bold" text-decoration="none" x="204.088623046875" y="579.5">Stub</text></g></g><g transform="translate(-118,-382) scale(1,1)"><rect fill="#C0C0C0" stroke="none" x="287" y="567" width="263.0078125" height="57" opacity="0.2"/></g><g transform="translate(-118,-382) scale(1,1)"><rect fill="#ffffff" stroke="none" x="280" y="560" width="263.0078125" height="57"/></g><g transform="translate(-118,-382) scale(1,1)"><path fill="none" stroke="#000000" d="M 280 560 L 543.0078125 560 L 543.0078125 617 L 280 617 L 280 560 Z Z" stroke-miterlimit="10"/></g><g transform="translate(-118,-382) scale(1,1)"><path fill="none" stroke="#000000" d="M 280 585 L 543.0078125 585" stroke-miterlimit="10"/></g><g transform="translate(-118,-382) scale(1,1)"><path fill="none" stroke="#000000" d="M 280 595 L 543.0078125 595" stroke-miterlimit="10"/></g><g transform="translate(-118,-382) scale(1,1)"><g><path fill="none" stroke="none"/><text fill="#000000" stroke="none" font-family="Arial" font-size="13px" font-style="normal" font-weight="bold" text-decoration="none" x="367.790771484375" y="579.5">SauveurFichier</text></g></g><g transform="translate(-118,-382) scale(1,1)"><g><path fill="none" stroke="none"/><text fill="#000000" stroke="none" font-family="Arial" font-size="13px" font-style="normal" font-weight="normal" text-decoration="none" x="285" y="612.5">+SauveurBouquin(): void</text></g></g><g transform="translate(-118,-382) scale(1,1)"><rect fill="#C0C0C0" stroke="none" x="245" y="685" width="263.0078125" height="60" opacity="0.2"/></g><g transform="translate(-118,-382) scale(1,1)"><rect fill="#ffffff" stroke="none" x="238" y="678" width="263.0078125" height="60"/></g><g transform="translate(-118,-382) scale(1,1)"><path fill="none" stroke="#000000" d="M 238 678 L 501.0078125 678 L 501.0078125 738 L 238 738 L 238 678 Z Z" stroke-miterlimit="10"/></g><g transform="translate(-118,-382) scale(1,1)"><path fill="none" stroke="#000000" d="M 238 716 L 501.0078125 716" stroke-miterlimit="10"/></g><g transform="translate(-118,-382) scale(1,1)"><g><path fill="none" stroke="none"/><text fill="#000000" stroke="none" font-family="Arial" font-size="13px" font-style="normal" font-weight="normal" text-decoration="none" x="337.343505859375" y="695.5">«interface»</text></g></g><g transform="translate(-118,-382) scale(1,1)"><g><path fill="none" stroke="none"/><text fill="#000000" stroke="none" font-family="Arial" font-size="13px" font-style="normal" font-weight="bold" text-decoration="none" x="343.488037109375" y="710.5">ISauveur</text></g></g><g transform="translate(-118,-382) scale(1,1)"><g><path fill="none" stroke="none"/><text fill="#000000" stroke="none" font-family="Arial" font-size="13px" font-style="normal" font-weight="normal" text-decoration="none" x="243" y="733.5">+SauveurBouquin(chemin: string): void</text></g></g><g transform="translate(-118,-382) scale(1,1)"><rect fill="#C0C0C0" stroke="none" x="271" y="807" width="208" height="57" opacity="0.2"/></g><g transform="translate(-118,-382) scale(1,1)"><rect fill="#ffffff" stroke="none" x="264" y="800" width="208" height="57"/></g><g transform="translate(-118,-382) scale(1,1)"><path fill="none" stroke="#000000" d="M 264 800 L 472 800 L 472 857 L 264 857 L 264 800 Z Z" stroke-miterlimit="10"/></g><g transform="translate(-118,-382) scale(1,1)"><path fill="none" stroke="#000000" d="M 264 825 L 472 825" stroke-miterlimit="10"/></g><g transform="translate(-118,-382) scale(1,1)"><path fill="none" stroke="#000000" d="M 264 835 L 472 835" stroke-miterlimit="10"/></g><g transform="translate(-118,-382) scale(1,1)"><g><path fill="none" stroke="none"/><text fill="#000000" stroke="none" font-family="Arial" font-size="13px" font-style="normal" font-weight="bold" text-decoration="none" x="324.286865234375" y="819.5">SauveurFichier</text></g></g><g transform="translate(-118,-382) scale(1,1)"><g><path fill="none" stroke="none"/><text fill="#000000" stroke="none" font-family="Arial" font-size="13px" font-style="normal" font-weight="normal" text-decoration="none" x="269" y="852.5">+SauveurBouquin(): void</text></g></g><g transform="translate(-118,-382) scale(1,1)"><path fill="none" stroke="#000000" d="M 641 608 L 775 576" stroke-miterlimit="10" stroke-dasharray="3"/></g><g transform="translate(-118,-382) scale(1,1)"><path fill="none" stroke="#000000" d="M 766.0930363494359 582.4549204896366 L 775 576 L 764.137507552662 574.2661436531461" stroke-miterlimit="10"/></g><g transform="translate(-118,-382) scale(1,1)"><rect fill="#C0C0C0" stroke="none" x="783" y="695" width="121.60000000000002" height="15" opacity="0.2"/></g><g transform="translate(-118,-382) scale(1,1)"><rect fill="#C0C0C0" stroke="none" x="783" y="709" width="304" height="170" opacity="0.2"/></g><g transform="translate(-118,-382) scale(1,1)"><rect fill="#ffffff" stroke="none" x="776" y="703" width="304" height="169"/></g><g transform="translate(-118,-382) scale(1,1)"><path fill="none" stroke="#000000" d="M 776 703 L 1080 703 L 1080 872 L 776 872 L 776 703 Z Z" stroke-miterlimit="10"/></g><g transform="translate(-118,-382) scale(1,1)"><rect fill="#ffffff" stroke="none" x="776" y="688" width="121.60000000000002" height="15"/></g><g transform="translate(-118,-382) scale(1,1)"><path fill="none" stroke="#000000" d="M 776 688 L 897.6 688 L 897.6 703 L 776 703 L 776 688 Z Z" stroke-miterlimit="10"/></g><g transform="translate(-118,-382) scale(1,1)"><rect fill="#ffffff" stroke="none" x="776" y="702" width="304" height="170"/></g><g transform="translate(-118,-382) scale(1,1)"><path fill="none" stroke="#000000" d="M 776 702 L 1080 702 L 1080 872 L 776 872 L 776 702 Z Z" stroke-miterlimit="10"/></g><g transform="translate(-118,-382) scale(1,1)"><g><path fill="none" stroke="none"/><text fill="#000000" stroke="none" font-family="Arial" font-size="13px" font-style="normal" font-weight="bold" text-decoration="none" x="897.29638671875" y="722.5">UltraNotes</text></g></g><g transform="translate(-118,-382) scale(1,1)"><path fill="none" stroke="#000000" d="M 641 721 L 775 749" stroke-miterlimit="10" stroke-dasharray="3"/></g><g transform="translate(-118,-382) scale(1,1)"><path fill="none" stroke="#000000" d="M 764.1911724793888 751.0418735586902 L 775 749 L 765.9131821238248 742.8008274031754" stroke-miterlimit="10"/></g><g transform="translate(-118,-382) scale(1,1)"><path fill="none" stroke="#000000" d="M 409 559 L 408 541 L 320 536 L 322 501" stroke-miterlimit="10" stroke-dasharray="3"/></g><g transform="translate(-118,-382) scale(1,1)"><path fill="#FFFFFF" stroke="none" d="M 329.24576677483327 521.7725507303442 L 322 501 L 312.43511933741286 520.8119423053487"/></g><g transform="translate(-118,-382) scale(1,1)"><path fill="none" stroke="#000000" d="M 329.24576677483327 521.7725507303442 L 322 501 L 312.43511933741286 520.8119423053487 L 329.24576677483327 521.7725507303442" stroke-miterlimit="10"/></g><g transform="translate(-118,-382) scale(1,1)"><path fill="none" stroke="#000000" d="M 216 559 L 216 539 L 320 536 L 322 501" stroke-miterlimit="10" stroke-dasharray="3"/></g><g transform="translate(-118,-382) scale(1,1)"><path fill="#FFFFFF" stroke="none" d="M 329.24576677483327 521.7725507303442 L 322 501 L 312.43511933741286 520.8119423053487"/></g><g transform="translate(-118,-382) scale(1,1)"><path fill="none" stroke="#000000" d="M 329.24576677483327 521.7725507303442 L 322 501 L 312.43511933741286 520.8119423053487 L 329.24576677483327 521.7725507303442" stroke-miterlimit="10"/></g><g transform="translate(-118,-382) scale(1,1)"><path fill="none" stroke="#000000" d="M 368 799 L 369 739" stroke-miterlimit="10" stroke-dasharray="3"/></g><g transform="translate(-118,-382) scale(1,1)"><path fill="#FFFFFF" stroke="none" d="M 377.0791576561276 759.4628251120766 L 369 739 L 360.2434247659393 759.1822295639068"/></g><g transform="translate(-118,-382) scale(1,1)"><path fill="none" stroke="#000000" d="M 377.0791576561276 759.4628251120766 L 369 739 L 360.2434247659393 759.1822295639068 L 377.0791576561276 759.4628251120766" stroke-miterlimit="10"/></g></g></svg>